<svg xmlns="http://www.w3.org/2000/svg" width="520" height="200" viewBox="0 0 520 200">
  <rect width="520" height="200" fill="#F8FAFC"/>
  <!-- 64 -->
  <rect x="40" y="60" width="64" height="64" rx="14" fill="#FFFFFF" stroke="#E2E8F0"/>
  <g transform="translate(52,57) scale(0.42)"><path d="M16 84 L48 14" fill="none" stroke="#1E4D8C" stroke-width="11" stroke-linecap="round"/>
    <path d="M48 14 L80 84" fill="none" stroke="#1E4D8C" stroke-width="11" stroke-linecap="round"/>
    <path d="M28 52 L48 40 L68 52" fill="none" stroke="#2E9E6B" stroke-width="8" stroke-linecap="round" stroke-linejoin="round"/>
    <rect x="40" y="56" width="16" height="16" rx="2" fill="#F2A93B"/></g>
  <text x="72" y="150" text-anchor="middle" font-family="Inter, Arial, sans-serif" font-size="13" fill="#64748B">64px</text>
  <!-- 32 -->
  <rect x="150" y="76" width="32" height="32" rx="7" fill="#FFFFFF" stroke="#E2E8F0"/>
  <g transform="translate(156,74.5) scale(0.21)"><path d="M16 84 L48 14" fill="none" stroke="#1E4D8C" stroke-width="11" stroke-linecap="round"/>
    <path d="M48 14 L80 84" fill="none" stroke="#1E4D8C" stroke-width="11" stroke-linecap="round"/>
    <path d="M28 52 L48 40 L68 52" fill="none" stroke="#2E9E6B" stroke-width="8" stroke-linecap="round" stroke-linejoin="round"/>
    <rect x="40" y="56" width="16" height="16" rx="2" fill="#F2A93B"/></g>
  <text x="166" y="150" text-anchor="middle" font-family="Inter, Arial, sans-serif" font-size="13" fill="#64748B">32px</text>
  <!-- 16 -->
  <rect x="222" y="84" width="16" height="16" rx="3" fill="#FFFFFF" stroke="#E2E8F0"/>
  <g transform="translate(225,83) scale(0.105)"><path d="M16 84 L48 14" fill="none" stroke="#1E4D8C" stroke-width="11" stroke-linecap="round"/>
    <path d="M48 14 L80 84" fill="none" stroke="#1E4D8C" stroke-width="11" stroke-linecap="round"/>
    <path d="M28 52 L48 40 L68 52" fill="none" stroke="#2E9E6B" stroke-width="8" stroke-linecap="round" stroke-linejoin="round"/>
    <rect x="40" y="56" width="16" height="16" rx="2" fill="#F2A93B"/></g>
  <text x="230" y="150" text-anchor="middle" font-family="Inter, Arial, sans-serif" font-size="13" fill="#64748B">16px</text>
  <!-- version sobre azul -->
  <rect x="320" y="60" width="64" height="64" rx="14" fill="#1E4D8C"/>
  <g transform="translate(332,57) scale(0.42)"><path d="M16 84 L48 14" fill="none" stroke="#FFFFFF" stroke-width="11" stroke-linecap="round"/>
    <path d="M48 14 L80 84" fill="none" stroke="#FFFFFF" stroke-width="11" stroke-linecap="round"/>
    <path d="M28 52 L48 40 L68 52" fill="none" stroke="#7BE8B5" stroke-width="8" stroke-linecap="round" stroke-linejoin="round"/>
    <rect x="40" y="56" width="16" height="16" rx="2" fill="#F2A93B"/></g>
  <text x="352" y="150" text-anchor="middle" font-family="Inter, Arial, sans-serif" font-size="13" fill="#64748B">app</text>
  <text x="450" y="96" font-family="Inter, Arial, sans-serif" font-size="14" fill="#94A3B8">favicon</text>
</svg>
